<svg width="30" height="30" xmlns="http://www.w3.org/2000/svg"><g fill="none" fill-rule="evenodd"><rect fill="#98BE34" width="30" height="30" rx="5"/><g transform="translate(4 2)" fill="#FFF"><path d="M18 8s-.238-3.272-3.005-4.983a6.037 6.037 0 0 0-.326-.188C13.732 2.327 12.533 2 11 2 4.436 2 4 8 4 8h14zM7.457 6.043a.587.587 0 1 0 0-1.173.587.587 0 0 0 0 1.173zm7.043 0a.587.587 0 1 0 0-1.173.587.587 0 0 0 0 1.173z"/><path d="M5.579 1.03a.576.576 0 0 0-.21.784L6.73 4.175l.99-.585-1.358-2.352a.58.58 0 0 0-.784-.209zM16.421 1.03a.576.576 0 0 1 .21.784L15.27 4.175l-.99-.585 1.358-2.352a.58.58 0 0 1 .784-.209zM4 10.99V21a1 1 0 0 0 1 1h11.948a1 1 0 0 0 1-.995l.047-10.01a1 1 0 0 0-1-1.004H5a1 1 0 0 0-1 1z"/><path d="M4 9h14v2H4z"/><rect y="9.991" width="3" height="9.04" rx="1.5"/><rect x="19" y="9.991" width="3" height="9.432" rx="1.5"/><path d="M13 20v4.501c0 .828.666 1.499 1.5 1.499.828 0 1.5-.665 1.5-1.499V20h-3zM6 20v4.501C6 25.33 6.666 26 7.5 26c.828 0 1.5-.665 1.5-1.499V20H6z"/></g></g></svg>